# xmcd CD database file
#
# Track frame offsets:
#	150
#	16983
#	55524
#	77878
#	107657
#	136832
#	166761
#	195874
#	223623
#	254531
#
# Disc length: 3583 seconds
#
# Revision: 4
# Processed by: cddbd v1.5.2PL0 Copyright (c) Steve Scherf et al.
# Submitted via: CDex 1.51
#
DISCID=780dfd0a
DTITLE=Otis Rush - Cold Day In Hell
DYEAR=1975
DGENRE=Blues
TTITLE0=Cut You A Loose
TTITLE1=You're Breaking My Heart
TTITLE2=Midnight Special
TTITLE3=Society Woman
TTITLE4=Mean Old World
TTITLE5=All Your Love
TTITLE6=Cold Day In Hell
TTITLE7=Part Time Love
TTITLE8=You're Breaking My Heart (Alternate Take)
TTITLE9=Motoring Along
EXTD=Delmark DE-638\n\nOtis Rush:  vocal, guitar\nAbb Locke:  tenor saxophone\nChuck Smith:  baritone saxophone\nBig Moose Walker:  organ, piano\nMighty Joe Young:  guitar\nJames Green:  bass\nJesse Green:  drums\n\nRecorded April 29 and May 29, 1975\n\nSu
EXTD=bmitted 6/26/97\n[Jmccoy@efn.org] YEAR: 1975
EXTT0=
EXTT1=
EXTT2=
EXTT3=
EXTT4=
EXTT5=
EXTT6=
EXTT7=
EXTT8=
EXTT9=
PLAYORDER=
